<svg xmlns="http://www.w3.org/2000/svg" xmlns:xlink="http://www.w3.org/1999/xlink" width="500" zoomAndPan="magnify" viewBox="0 0 375 374.999991" height="500" preserveAspectRatio="xMidYMid meet" version="1.0"><defs><g/><clipPath id="32e4362069"><path d="M 137 164 L 238 164 L 238 239.875 L 137 239.875 Z M 137 164 " clip-rule="nonzero"/></clipPath><clipPath id="3e03b10c29"><path d="M 82.539062 150 L 190 150 L 190 231 L 82.539062 231 Z M 82.539062 150 " clip-rule="nonzero"/></clipPath><clipPath id="002eff4ee9"><path d="M 137 54.242188 L 237 54.242188 L 237 130 L 137 130 Z M 137 54.242188 " clip-rule="nonzero"/></clipPath><clipPath id="d8293bc429"><path d="M 185 63 L 292.199219 63 L 292.199219 144 L 185 144 Z M 185 63 " clip-rule="nonzero"/></clipPath></defs><path fill="#7f248d" d="M 231.632812 122.523438 C 227.289062 122.925781 223.1875 124.085938 219.460938 125.859375 C 234.484375 126.207031 248.300781 135.996094 253.089844 151.179688 C 260.292969 174.011719 239.003906 208.382812 242.738281 236.429688 C 244.871094 210.136719 269.429688 183.125 270.988281 160.257812 C 272.625 161.316406 274.609375 161.859375 276.695312 161.667969 C 281.65625 161.207031 285.308594 156.804688 284.851562 151.824219 C 284.394531 146.851562 280.003906 143.1875 275.042969 143.644531 C 272.644531 143.867188 270.558594 145.015625 269.089844 146.699219 C 263.757812 131.324219 248.519531 120.964844 231.632812 122.523438 " fill-opacity="1" fill-rule="nonzero"/><g clip-path="url(#32e4362069)"><path fill="#1082ce" d="M 230.679688 173.253906 C 228.15625 169.675781 225.109375 166.695312 221.714844 164.34375 C 228.925781 177.574219 227.382812 194.472656 216.675781 206.222656 C 200.566406 223.898438 160.257812 222.585938 137.914062 239.855469 C 161.675781 228.5625 197.273438 236.394531 217.785156 226.320312 C 217.691406 228.269531 218.210938 230.265625 219.421875 231.980469 C 222.296875 236.0625 227.925781 237.03125 231.996094 234.144531 C 236.0625 231.261719 237.027344 225.613281 234.152344 221.535156 C 232.761719 219.558594 230.726562 218.324219 228.539062 217.890625 C 239.144531 205.566406 240.46875 187.148438 230.679688 173.253906 " fill-opacity="1" fill-rule="nonzero"/></g><g clip-path="url(#3e03b10c29)"><path fill="#40b93c" d="M 186.414062 197.789062 C 188.242188 193.808594 189.292969 189.671875 189.625 185.542969 C 181.808594 198.425781 166.449219 205.535156 150.953125 202.105469 C 127.644531 196.945312 108.621094 161.261719 82.542969 150.484375 C 104.171875 165.484375 115.210938 200.332031 134.167969 213.121094 C 132.433594 214.011719 130.972656 215.460938 130.097656 217.371094 C 128.011719 221.914062 129.988281 227.285156 134.515625 229.378906 C 139.039062 231.46875 144.394531 229.484375 146.476562 224.945312 C 147.488281 222.753906 147.535156 220.367188 146.816406 218.246094 C 162.757812 221.304688 179.316406 213.242188 186.414062 197.789062 " fill-opacity="1" fill-rule="nonzero"/></g><path fill="#fbc108" d="M 143.105469 171.59375 C 147.453125 171.191406 151.550781 170.035156 155.277344 168.261719 C 140.253906 167.910156 126.4375 158.121094 121.648438 142.9375 C 114.449219 120.105469 135.734375 85.734375 132 57.6875 C 129.867188 83.980469 105.308594 110.996094 103.75 133.859375 C 102.113281 132.800781 100.132812 132.257812 98.042969 132.449219 C 93.082031 132.910156 89.429688 137.3125 89.890625 142.292969 C 90.347656 147.269531 94.738281 150.929688 99.695312 150.472656 C 102.09375 150.25 104.179688 149.101562 105.648438 147.417969 C 110.980469 162.792969 126.21875 173.15625 143.105469 171.59375 " fill-opacity="1" fill-rule="nonzero"/><g clip-path="url(#002eff4ee9)"><path fill="#e91348" d="M 144.058594 120.863281 C 146.578125 124.441406 149.628906 127.421875 153.023438 129.773438 C 145.8125 116.542969 147.355469 99.644531 158.066406 87.894531 C 174.171875 70.21875 214.480469 71.53125 236.824219 54.261719 C 213.066406 65.554688 177.464844 57.722656 156.949219 67.796875 C 157.046875 65.847656 156.523438 63.855469 155.316406 62.136719 C 152.441406 58.054688 146.8125 57.085938 142.746094 59.972656 C 138.675781 62.855469 137.710938 68.503906 140.585938 72.585938 C 141.976562 74.558594 144.011719 75.792969 146.199219 76.230469 C 135.59375 88.550781 134.269531 106.96875 144.058594 120.863281 " fill-opacity="1" fill-rule="nonzero"/></g><g clip-path="url(#d8293bc429)"><path fill="#f1471d" d="M 188.324219 96.328125 C 186.496094 100.308594 185.449219 104.445312 185.113281 108.574219 C 192.929688 95.691406 208.289062 88.582031 223.785156 92.011719 C 247.09375 97.171875 266.117188 132.855469 292.195312 143.632812 C 270.566406 128.632812 259.527344 93.785156 240.574219 80.996094 C 242.304688 80.105469 243.765625 78.65625 244.640625 76.746094 C 246.726562 72.207031 244.75 66.832031 240.226562 64.738281 C 235.703125 62.648438 230.34375 64.632812 228.257812 69.171875 C 227.253906 71.367188 227.203125 73.75 227.921875 75.871094 C 211.980469 72.816406 195.421875 80.875 188.324219 96.328125 " fill-opacity="1" fill-rule="nonzero"/></g><g fill="#ffffff" fill-opacity="1"><g transform="translate(88.440341, 293.716537)"><g><path d="M 17.132812 0.402344 C 23.09375 0.402344 28.304688 -3.003906 30.859375 -8.015625 L 24.246094 -11.371094 C 22.941406 -8.765625 20.339844 -7.113281 17.132812 -7.113281 C 12.574219 -7.113281 9.167969 -10.46875 9.167969 -15.027344 C 9.167969 -19.585938 12.574219 -22.941406 17.132812 -22.941406 C 20.339844 -22.941406 22.941406 -21.289062 24.246094 -18.683594 L 30.859375 -22.042969 C 28.304688 -27.050781 23.09375 -30.457031 17.132812 -30.457031 C 8.566406 -30.457031 1.703125 -23.542969 1.703125 -15.027344 C 1.703125 -6.511719 8.566406 0.402344 17.132812 0.402344 Z M 17.132812 0.402344 "/></g></g></g><g fill="#ffffff" fill-opacity="1"><g transform="translate(121.978366, 293.716537)"><g><path d="M 3.003906 0 L 10.667969 0 L 10.667969 -30.054688 L 3.003906 -30.054688 Z M 3.003906 0 "/></g></g></g><g fill="#ffffff" fill-opacity="1"><g transform="translate(137.084676, 293.716537)"><g><path d="M 19.484375 -11.921875 C 22.941406 -13.125 25.347656 -16.480469 25.347656 -20.589844 C 25.347656 -25.796875 21.488281 -30.054688 16.128906 -30.054688 L 2.753906 -30.054688 L 2.753906 0 L 10.417969 0 L 10.417969 -11.019531 L 12.171875 -11.019531 L 19.1875 0 L 27.800781 0 Z M 14.878906 -17.183594 L 10.417969 -17.183594 L 10.417969 -23.394531 L 14.878906 -23.394531 C 16.679688 -23.394531 17.984375 -22.089844 17.984375 -20.289062 C 17.984375 -18.484375 16.679688 -17.183594 14.878906 -17.183594 Z M 14.878906 -17.183594 "/></g></g></g><g fill="#ffffff" fill-opacity="1"><g transform="translate(165.914607, 293.716537)"><g><path d="M 17.132812 0.402344 C 23.09375 0.402344 28.304688 -3.003906 30.859375 -8.015625 L 24.246094 -11.371094 C 22.941406 -8.765625 20.339844 -7.113281 17.132812 -7.113281 C 12.574219 -7.113281 9.167969 -10.46875 9.167969 -15.027344 C 9.167969 -19.585938 12.574219 -22.941406 17.132812 -22.941406 C 20.339844 -22.941406 22.941406 -21.289062 24.246094 -18.683594 L 30.859375 -22.042969 C 28.304688 -27.050781 23.09375 -30.457031 17.132812 -30.457031 C 8.566406 -30.457031 1.703125 -23.542969 1.703125 -15.027344 C 1.703125 -6.511719 8.566406 0.402344 17.132812 0.402344 Z M 17.132812 0.402344 "/></g></g></g><g fill="#ffffff" fill-opacity="1"><g transform="translate(199.452633, 293.716537)"><g><path d="M 10.417969 -6.664062 L 10.417969 -30.054688 L 2.753906 -30.054688 L 2.753906 0 L 19.988281 0 L 19.988281 -6.664062 Z M 10.417969 -6.664062 "/></g></g></g><g fill="#ffffff" fill-opacity="1"><g transform="translate(220.919881, 293.716537)"><g><path d="M 3.003906 0 L 10.667969 0 L 10.667969 -30.054688 L 3.003906 -30.054688 Z M 3.003906 0 "/></g></g></g><g fill="#ffffff" fill-opacity="1"><g transform="translate(236.026183, 293.716537)"><g><path d="M 21.640625 -23.394531 L 21.640625 -30.054688 L 3.003906 -30.054688 L 3.003906 0 L 10.667969 0 L 10.667969 -11.722656 L 19.9375 -11.722656 L 19.9375 -18.335938 L 10.667969 -18.335938 L 10.667969 -23.394531 Z M 21.640625 -23.394531 "/></g></g></g><g fill="#ffffff" fill-opacity="1"><g transform="translate(259.496891, 293.716537)"><g><path d="M 27.902344 -30.054688 L 19.484375 -30.054688 L 13.574219 -20.636719 L 7.664062 -30.054688 L -0.851562 -30.054688 L 9.71875 -14.125 L 9.71875 0 L 17.382812 0 L 17.382812 -14.175781 Z M 27.902344 -30.054688 "/></g></g></g><g fill="#ffffff" fill-opacity="1"><g transform="translate(51.333267, 316.970587)"><g><path d="M 6.6875 -8.859375 L 6.6875 -9.878906 L 1.285156 -9.878906 L 1.285156 0 L 2.339844 0 L 2.339844 -4.429688 L 6.125 -4.429688 L 6.125 -5.449219 L 2.339844 -5.449219 L 2.339844 -8.859375 Z M 6.6875 -8.859375 "/></g></g></g><g fill="#ffffff" fill-opacity="1"><g transform="translate(64.504519, 316.970587)"><g><path d="M 1.285156 0 L 2.339844 0 L 2.339844 -9.878906 L 1.285156 -9.878906 Z M 1.285156 0 "/></g></g></g><g fill="#ffffff" fill-opacity="1"><g transform="translate(74.302284, 316.970587)"><g><path d="M 8.300781 -9.878906 L 8.300781 -1.761719 L 2.191406 -9.878906 L 1.203125 -9.878906 L 1.203125 0 L 2.257812 0 L 2.257812 -8.117188 L 8.347656 0 L 9.335938 0 L 9.335938 -9.878906 Z M 8.300781 -9.878906 "/></g></g></g><g fill="#ffffff" fill-opacity="1"><g transform="translate(91.028041, 316.970587)"><g><path d="M 1.203125 0 L 3.902344 0 C 6.621094 0 8.84375 -2.207031 8.84375 -4.941406 C 8.84375 -7.675781 6.621094 -9.878906 3.902344 -9.878906 L 1.203125 -9.878906 Z M 2.238281 -1.054688 L 2.238281 -8.828125 L 3.886719 -8.828125 C 6.078125 -8.828125 7.789062 -7.164062 7.789062 -4.941406 C 7.789062 -2.71875 6.078125 -1.054688 3.886719 -1.054688 Z M 2.238281 -1.054688 "/></g></g></g><g fill="#ffffff" fill-opacity="1"><g transform="translate(106.865172, 316.970587)"><g/></g></g><g fill="#ffffff" fill-opacity="1"><g transform="translate(117.024969, 316.970587)"><g><path d="M 7.96875 -9.878906 L 6.667969 -9.878906 L 4 -5.78125 L 1.332031 -9.878906 L 0.015625 -9.878906 L 3.476562 -4.675781 L 3.476562 0 L 4.527344 0 L 4.527344 -4.695312 Z M 7.96875 -9.878906 "/></g></g></g><g fill="#ffffff" fill-opacity="1"><g transform="translate(131.200041, 316.970587)"><g><path d="M 5.878906 0.132812 C 8.695312 0.132812 10.953125 -2.140625 10.953125 -4.941406 C 10.953125 -7.738281 8.695312 -10.011719 5.878906 -10.011719 C 3.078125 -10.011719 0.808594 -7.738281 0.808594 -4.941406 C 0.808594 -2.140625 3.078125 0.132812 5.878906 0.132812 Z M 5.878906 -0.921875 C 3.65625 -0.921875 1.859375 -2.699219 1.859375 -4.941406 C 1.859375 -7.179688 3.65625 -8.957031 5.878906 -8.957031 C 8.117188 -8.957031 9.898438 -7.179688 9.898438 -4.941406 C 9.898438 -2.699219 8.117188 -0.921875 5.878906 -0.921875 Z M 5.878906 -0.921875 "/></g></g></g><g fill="#ffffff" fill-opacity="1"><g transform="translate(149.16, 316.970587)"><g><path d="M 4.859375 0.132812 C 7.015625 0.132812 8.578125 -1.300781 8.578125 -3.246094 L 8.578125 -9.878906 L 7.527344 -9.878906 L 7.527344 -3.410156 C 7.527344 -1.976562 6.390625 -0.921875 4.859375 -0.921875 C 3.328125 -0.921875 2.207031 -1.976562 2.207031 -3.410156 L 2.207031 -9.878906 L 1.152344 -9.878906 L 1.152344 -3.246094 C 1.152344 -1.300781 2.71875 0.132812 4.859375 0.132812 Z M 4.859375 0.132812 "/></g></g></g><g fill="#ffffff" fill-opacity="1"><g transform="translate(165.079412, 316.970587)"><g><path d="M 5.203125 -4.511719 C 6.503906 -4.695312 7.492188 -5.78125 7.492188 -7.113281 C 7.492188 -8.664062 6.257812 -9.878906 4.742188 -9.878906 L 1.203125 -9.878906 L 1.203125 0 L 2.257812 0 L 2.257812 -4.460938 L 4.117188 -4.460938 L 6.917969 0 L 8.117188 0 Z M 2.257812 -5.46875 L 2.257812 -8.828125 L 4.675781 -8.828125 C 5.664062 -8.828125 6.4375 -8.136719 6.4375 -7.148438 C 6.4375 -6.140625 5.679688 -5.46875 4.675781 -5.46875 Z M 2.257812 -5.46875 "/></g></g></g><g fill="#ffffff" fill-opacity="1"><g transform="translate(179.534236, 316.970587)"><g/></g></g><g fill="#ffffff" fill-opacity="1"><g transform="translate(189.694033, 316.970587)"><g><path d="M 6.667969 -9.878906 L 0.148438 -9.878906 L 0.148438 -8.828125 L 2.882812 -8.828125 L 2.882812 0 L 3.9375 0 L 3.9375 -8.828125 L 6.667969 -8.828125 Z M 6.667969 -9.878906 "/></g></g></g><g fill="#ffffff" fill-opacity="1"><g transform="translate(202.700725, 316.970587)"><g><path d="M 5.203125 -4.511719 C 6.503906 -4.695312 7.492188 -5.78125 7.492188 -7.113281 C 7.492188 -8.664062 6.257812 -9.878906 4.742188 -9.878906 L 1.203125 -9.878906 L 1.203125 0 L 2.257812 0 L 2.257812 -4.460938 L 4.117188 -4.460938 L 6.917969 0 L 8.117188 0 Z M 2.257812 -5.46875 L 2.257812 -8.828125 L 4.675781 -8.828125 C 5.664062 -8.828125 6.4375 -8.136719 6.4375 -7.148438 C 6.4375 -6.140625 5.679688 -5.46875 4.675781 -5.46875 Z M 2.257812 -5.46875 "/></g></g></g><g fill="#ffffff" fill-opacity="1"><g transform="translate(217.155549, 316.970587)"><g><path d="M 4.859375 0.132812 C 7.015625 0.132812 8.578125 -1.300781 8.578125 -3.246094 L 8.578125 -9.878906 L 7.527344 -9.878906 L 7.527344 -3.410156 C 7.527344 -1.976562 6.390625 -0.921875 4.859375 -0.921875 C 3.328125 -0.921875 2.207031 -1.976562 2.207031 -3.410156 L 2.207031 -9.878906 L 1.152344 -9.878906 L 1.152344 -3.246094 C 1.152344 -1.300781 2.71875 0.132812 4.859375 0.132812 Z M 4.859375 0.132812 "/></g></g></g><g fill="#ffffff" fill-opacity="1"><g transform="translate(233.07496, 316.970587)"><g><path d="M 6.6875 -8.859375 L 6.6875 -9.878906 L 1.285156 -9.878906 L 1.285156 0 L 6.6875 0 L 6.6875 -1.019531 L 2.339844 -1.019531 L 2.339844 -4.429688 L 6.125 -4.429688 L 6.125 -5.449219 L 2.339844 -5.449219 L 2.339844 -8.859375 Z M 6.6875 -8.859375 "/></g></g></g><g fill="#ffffff" fill-opacity="1"><g transform="translate(246.937367, 316.970587)"><g/></g></g><g fill="#ffffff" fill-opacity="1"><g transform="translate(257.097164, 316.970587)"><g><path d="M 3.6875 0.132812 C 5.367188 0.132812 6.734375 -0.871094 6.734375 -2.601562 C 6.734375 -5.960938 1.925781 -5.136719 1.925781 -7.492188 C 1.925781 -8.480469 2.734375 -8.957031 3.65625 -8.957031 C 4.414062 -8.957031 5.039062 -8.644531 5.433594 -8.085938 L 6.257812 -8.777344 C 5.714844 -9.46875 4.757812 -10.011719 3.621094 -10.011719 C 2.109375 -10.011719 0.871094 -9.023438 0.871094 -7.410156 C 0.871094 -4.230469 5.679688 -5.023438 5.679688 -2.570312 C 5.679688 -1.515625 4.808594 -0.921875 3.707031 -0.921875 C 2.585938 -0.921875 1.777344 -1.53125 1.433594 -2.4375 L 0.476562 -1.878906 C 0.988281 -0.660156 2.222656 0.132812 3.6875 0.132812 Z M 3.6875 0.132812 "/></g></g></g><g fill="#ffffff" fill-opacity="1"><g transform="translate(270.498801, 316.970587)"><g><path d="M 4.742188 -9.878906 L 1.203125 -9.878906 L 1.203125 0 L 2.257812 0 L 2.257812 -4.398438 L 4.742188 -4.398438 C 6.273438 -4.398438 7.492188 -5.597656 7.492188 -7.128906 C 7.492188 -8.644531 6.273438 -9.878906 4.742188 -9.878906 Z M 4.644531 -5.402344 L 2.257812 -5.402344 L 2.257812 -8.859375 L 4.644531 -8.859375 C 5.632812 -8.859375 6.4375 -8.167969 6.4375 -7.113281 C 6.4375 -6.027344 5.632812 -5.402344 4.644531 -5.402344 Z M 4.644531 -5.402344 "/></g></g></g><g fill="#ffffff" fill-opacity="1"><g transform="translate(284.459944, 316.970587)"><g><path d="M 7.164062 0 L 8.316406 0 L 4.742188 -9.878906 L 3.574219 -9.878906 L 0 0 L 1.152344 0 L 1.960938 -2.304688 L 6.355469 -2.304688 Z M 2.304688 -3.308594 L 4.167969 -8.628906 L 6.011719 -3.308594 Z M 2.304688 -3.308594 "/></g></g></g><g fill="#ffffff" fill-opacity="1"><g transform="translate(298.964136, 316.970587)"><g><path d="M 5.878906 0.132812 C 7.773438 0.132812 9.417969 -0.90625 10.292969 -2.4375 L 9.386719 -2.949219 C 8.710938 -1.730469 7.394531 -0.921875 5.878906 -0.921875 C 3.65625 -0.921875 1.859375 -2.699219 1.859375 -4.941406 C 1.859375 -7.179688 3.65625 -8.957031 5.878906 -8.957031 C 7.394531 -8.957031 8.710938 -8.152344 9.386719 -6.933594 L 10.292969 -7.445312 C 9.417969 -8.976562 7.773438 -10.011719 5.878906 -10.011719 C 3.078125 -10.011719 0.808594 -7.738281 0.808594 -4.941406 C 0.808594 -2.140625 3.078125 0.132812 5.878906 0.132812 Z M 5.878906 0.132812 "/></g></g></g><g fill="#ffffff" fill-opacity="1"><g transform="translate(315.986102, 316.970587)"><g><path d="M 6.6875 -8.859375 L 6.6875 -9.878906 L 1.285156 -9.878906 L 1.285156 0 L 6.6875 0 L 6.6875 -1.019531 L 2.339844 -1.019531 L 2.339844 -4.429688 L 6.125 -4.429688 L 6.125 -5.449219 L 2.339844 -5.449219 L 2.339844 -8.859375 Z M 6.6875 -8.859375 "/></g></g></g></svg>